<?xml version="1.0" encoding="utf-8"?>
<svg version="1.1" xmlns:xlink="http://www.w3.org/1999/xlink" width="160px" height="156px" xmlns="http://www.w3.org/2000/svg">
  <g transform="matrix(1 0 0 1 -107 -350 )">
    <path d="M 29 113  L 44 113  L 44 127  L 29 127  L 29 113  Z M 29 29  L 44 29  L 44 43  L 29 43  L 29 29  Z M 116 29  L 131 29  L 131 43  L 116 43  L 116 29  Z M 15 99  L 15 141  L 59 141  L 59 99  L 15 99  Z M 15 15  L 15 57  L 59 57  L 59 15  L 15 15  Z M 101 15  L 101 57  L 145 57  L 145 15  L 101 15  Z M 0 85  L 73 85  L 73 156  L 0 156  L 0 85  Z M 116 141  L 131 141  L 131 156  L 116 156  L 116 141  Z M 145 141  L 160 141  L 160 156  L 145 156  L 145 141  Z M 145 85  L 160 85  L 160 127  L 116 127  L 116 113  L 101 113  L 101 156  L 87 156  L 87 85  L 131 85  L 131 99  L 145 99  L 145 85  Z M 0 0  L 73 0  L 73 71  L 0 71  L 0 0  Z M 87 0  L 160 0  L 160 71  L 87 71  L 87 0  Z " fill-rule="nonzero" fill="#000000" stroke="none" transform="matrix(1 0 0 1 107 350 )" />
  </g>
</svg>