<?xml version="1.0" encoding="utf-8"?>
<svg version="1.1" xmlns:xlink="http://www.w3.org/1999/xlink" width="37px" height="33px" xmlns="http://www.w3.org/2000/svg">
  <g transform="matrix(1 0 0 1 -888 -334 )">
    <path d="M 36.1279461279461 24.6666666666667  C 36.709315375982 25.1851851851852  37 25.8148148148148  37 26.5555555555556  C 37 27.2962962962963  36.709315375982 27.9259259259259  36.1279461279461 28.4444444444444  L 31.8922558922559 32.2222222222222  C 31.31088664422 32.7407407407407  30.6049382716049 33  29.7744107744108 33  C 28.9438832772166 33  28.2379349046016 32.7407407407407  27.6565656565657 32.2222222222222  L 18.5 24.0555555555556  L 9.34343434343434 32.2222222222222  C 8.76206509539843 32.7407407407407  8.05611672278339 33  7.22558922558923 33  C 6.39506172839506 33  5.68911335578002 32.7407407407407  5.10774410774411 32.2222222222222  L 0.872053872053872 28.4444444444444  C 0.290684624017958 27.9259259259259  0 27.2962962962963  0 26.5555555555556  C 0 25.8148148148148  0.290684624017958 25.1851851851852  0.872053872053872 24.6666666666667  L 10.0286195286195 16.5  L 0.872053872053872 8.33333333333333  C 0.290684624017958 7.81481481481481  0 7.18518518518519  0 6.44444444444444  C 0 5.7037037037037  0.290684624017958 5.07407407407407  0.872053872053872 4.55555555555556  L 5.10774410774411 0.777777777777778  C 5.68911335578002 0.259259259259258  6.39506172839506 0  7.22558922558923 0  C 8.05611672278339 0  8.76206509539843 0.259259259259258  9.34343434343434 0.777777777777778  L 18.5 8.94444444444445  L 27.6565656565657 0.777777777777778  C 28.2379349046016 0.259259259259258  28.9438832772166 0  29.7744107744108 0  C 30.6049382716049 0  31.31088664422 0.259259259259258  31.8922558922559 0.777777777777778  L 36.1279461279461 4.55555555555556  C 36.709315375982 5.07407407407407  37 5.7037037037037  37 6.44444444444444  C 37 7.18518518518519  36.709315375982 7.81481481481481  36.1279461279461 8.33333333333333  L 26.9713804713805 16.5  L 36.1279461279461 24.6666666666667  Z " fill-rule="nonzero" fill="#000000" stroke="none" transform="matrix(1 0 0 1 888 334 )" />
  </g>
</svg>