<?xml version="1.0" encoding="utf-8"?>
<svg version="1.1" xmlns:xlink="http://www.w3.org/1999/xlink" width="12px" height="12px" viewBox="1808 597  12 12" xmlns="http://www.w3.org/2000/svg">
  <path d="M 1814 597  C 1817.36 597  1820 599.64  1820 603  C 1820 606.36  1817.36 609  1814 609  C 1810.64 609  1808 606.36  1808 603  C 1808 599.64  1810.64 597  1814 597  Z " fill-rule="nonzero" fill="#f0f0f0" stroke="none" />
  <path d="M 1814 597.5  C 1817.08 597.5  1819.5 599.92  1819.5 603  C 1819.5 606.08  1817.08 608.5  1814 608.5  C 1810.92 608.5  1808.5 606.08  1808.5 603  C 1808.5 599.92  1810.92 597.5  1814 597.5  Z " stroke-width="1" stroke="#797979" fill="none" />
  <path d="M 1814 606  C 1812.32 606  1811 604.68  1811 603  C 1811 601.32  1812.32 600  1814 600  C 1815.68 600  1817 601.32  1817 603  C 1817 604.68  1815.68 606  1814 606  " fill-rule="nonzero" fill="#797979" stroke="none" />
</svg>