<?xml version="1.0" encoding="utf-8"?>
<svg version="1.1" xmlns:xlink="http://www.w3.org/1999/xlink" width="54px" height="43px" xmlns="http://www.w3.org/2000/svg">
  <g transform="matrix(1 0 0 1 -955 -243 )">
    <path d="M 955 243  L 1009 243  L 1009 286  L 955 286  L 955 243  " fill-rule="nonzero" fill="#cccccc" stroke="none" />
    <path d="M 958 246  L 1006 246  L 1006 283  L 958 283  L 958 246  " fill-rule="nonzero" fill="#ffffff" stroke="none" />
    <path d="M 986.305 255.9  C 984.499 255.9  983.08 254.481  983.08 252.675  C 983.08 250.869  984.499 249.45  986.305 249.45  C 988.111 249.45  989.53 250.869  989.53 252.675  C 989.53 254.481  988.111 255.9  986.305 255.9  " fill-rule="nonzero" fill="#cccccc" stroke="none" />
    <path d="M 959 282  L 959 262.75  L 970.5 254  L 986.6 265.277777777778  L 995.8 259.25  L 1005 265.277777777778  L 1005 282  L 959 282  " fill-rule="nonzero" fill="#169bd5" stroke="none" />
  </g>
</svg>