<?xml version="1.0" encoding="utf-8"?>
<svg version="1.1" xmlns:xlink="http://www.w3.org/1999/xlink" width="12px" height="12px" viewBox="1918 597  12 12" xmlns="http://www.w3.org/2000/svg">
  <path d="M 1924 597  C 1927.36 597  1930 599.64  1930 603  C 1930 606.36  1927.36 609  1924 609  C 1920.64 609  1918 606.36  1918 603  C 1918 599.64  1920.64 597  1924 597  Z " fill-rule="nonzero" fill="#f0f0f0" stroke="none" />
  <path d="M 1924 597.5  C 1927.08 597.5  1929.5 599.92  1929.5 603  C 1929.5 606.08  1927.08 608.5  1924 608.5  C 1920.92 608.5  1918.5 606.08  1918.5 603  C 1918.5 599.92  1920.92 597.5  1924 597.5  Z " stroke-width="1" stroke="#797979" fill="none" />
  <path d="M 1924 606  C 1922.32 606  1921 604.68  1921 603  C 1921 601.32  1922.32 600  1924 600  C 1925.68 600  1927 601.32  1927 603  C 1927 604.68  1925.68 606  1924 606  " fill-rule="nonzero" fill="#797979" stroke="none" />
</svg>