<?xml version="1.0" encoding="utf-8"?>
<svg version="1.1" xmlns:xlink="http://www.w3.org/1999/xlink" width="54px" height="43px" xmlns="http://www.w3.org/2000/svg">
  <g transform="matrix(1 0 0 1 -866 -238 )">
    <path d="M 866 238  L 920 238  L 920 281  L 866 281  L 866 238  " fill-rule="nonzero" fill="#cccccc" stroke="none" />
    <path d="M 869 241  L 917 241  L 917 278  L 869 278  L 869 241  " fill-rule="nonzero" fill="#ffffff" stroke="none" />
    <path d="M 897.305 250.9  C 895.499 250.9  894.08 249.481  894.08 247.675  C 894.08 245.869  895.499 244.45  897.305 244.45  C 899.111 244.45  900.53 245.869  900.53 247.675  C 900.53 249.481  899.111 250.9  897.305 250.9  " fill-rule="nonzero" fill="#cccccc" stroke="none" />
    <path d="M 870 277  L 870 257.75  L 881.5 249  L 897.6 260.277777777778  L 906.8 254.25  L 916 260.277777777778  L 916 277  L 870 277  " fill-rule="nonzero" fill="#169bd5" stroke="none" />
  </g>
</svg>