<?xml version="1.0" encoding="utf-8"?>
<svg version="1.1" xmlns:xlink="http://www.w3.org/1999/xlink" width="12px" height="12px" viewBox="1918 773  12 12" xmlns="http://www.w3.org/2000/svg">
  <path d="M 1924 773  C 1927.36 773  1930 775.64  1930 779  C 1930 782.36  1927.36 785  1924 785  C 1920.64 785  1918 782.36  1918 779  C 1918 775.64  1920.64 773  1924 773  Z " fill-rule="nonzero" fill="#f0f0f0" stroke="none" />
  <path d="M 1924 773.5  C 1927.08 773.5  1929.5 775.92  1929.5 779  C 1929.5 782.08  1927.08 784.5  1924 784.5  C 1920.92 784.5  1918.5 782.08  1918.5 779  C 1918.5 775.92  1920.92 773.5  1924 773.5  Z " stroke-width="1" stroke="#797979" fill="none" />
  <path d="M 1924 782  C 1922.32 782  1921 780.68  1921 779  C 1921 777.32  1922.32 776  1924 776  C 1925.68 776  1927 777.32  1927 779  C 1927 780.68  1925.68 782  1924 782  " fill-rule="nonzero" fill="#797979" stroke="none" />
</svg>