<?xml version="1.0" encoding="utf-8"?>
<svg version="1.1" xmlns:xlink="http://www.w3.org/1999/xlink" width="13px" height="16px" xmlns="http://www.w3.org/2000/svg">
  <g transform="matrix(1 0 0 1 -1868 -610 )">
    <path d="M 12.6936026936027 11.959595959596  C 12.8978675645342 12.2109988776655  13 12.5162738496072  13 12.8754208754209  C 13 13.2345679012346  12.8978675645342 13.5398428731762  12.6936026936027 13.7912457912458  L 11.2053872053872 15.6228956228956  C 11.0011223344557 15.8742985409652  10.7530864197531 16  10.4612794612795 16  C 10.1694725028058 16  9.92143658810325 15.8742985409652  9.71717171717172 15.6228956228956  L 6.5 11.6632996632997  L 3.28282828282828 15.6228956228956  C 3.07856341189675 15.8742985409652  2.83052749719416 16  2.53872053872054 16  C 2.24691358024691 16  1.99887766554433 15.8742985409652  1.79461279461279 15.6228956228956  L 0.306397306397306 13.7912457912458  C 0.102132435465769 13.5398428731762  0 13.2345679012346  0 12.8754208754209  C 0 12.5162738496072  0.102132435465769 12.2109988776655  0.306397306397306 11.959595959596  L 3.52356902356902 8  L 0.306397306397306 4.04040404040404  C 0.102132435465769 3.78900112233445  0 3.48372615039282  0 3.12457912457912  C 0 2.76543209876543  0.102132435465769 2.46015712682379  0.306397306397306 2.20875420875421  L 1.79461279461279 0.377104377104377  C 1.99887766554433 0.125701459034792  2.24691358024691 0  2.53872053872054 0  C 2.83052749719416 0  3.07856341189675 0.125701459034792  3.28282828282828 0.377104377104377  L 6.5 4.33670033670034  L 9.71717171717172 0.377104377104377  C 9.92143658810325 0.125701459034792  10.1694725028058 0  10.4612794612795 0  C 10.7530864197531 0  11.0011223344557 0.125701459034792  11.2053872053872 0.377104377104377  L 12.6936026936027 2.20875420875421  C 12.8978675645342 2.46015712682379  13 2.76543209876543  13 3.12457912457912  C 13 3.48372615039282  12.8978675645342 3.78900112233445  12.6936026936027 4.04040404040404  L 9.47643097643098 8  L 12.6936026936027 11.959595959596  Z " fill-rule="nonzero" fill="#000000" stroke="none" transform="matrix(1 0 0 1 1868 610 )" />
  </g>
</svg>