<?xml version="1.0" encoding="utf-8"?>
<svg version="1.1" xmlns:xlink="http://www.w3.org/1999/xlink" width="12px" height="12px" viewBox="1808 773  12 12" xmlns="http://www.w3.org/2000/svg">
  <path d="M 1814 773  C 1817.36 773  1820 775.64  1820 779  C 1820 782.36  1817.36 785  1814 785  C 1810.64 785  1808 782.36  1808 779  C 1808 775.64  1810.64 773  1814 773  Z " fill-rule="nonzero" fill="#ffffff" stroke="none" />
  <path d="M 1814 773.5  C 1817.08 773.5  1819.5 775.92  1819.5 779  C 1819.5 782.08  1817.08 784.5  1814 784.5  C 1810.92 784.5  1808.5 782.08  1808.5 779  C 1808.5 775.92  1810.92 773.5  1814 773.5  Z " stroke-width="1" stroke="#797979" fill="none" />
  <path d="M 1814 782  C 1812.32 782  1811 780.68  1811 779  C 1811 777.32  1812.32 776  1814 776  C 1815.68 776  1817 777.32  1817 779  C 1817 780.68  1815.68 782  1814 782  " fill-rule="nonzero" fill="#797979" stroke="none" />
</svg>