<?xml version="1.0" encoding="utf-8"?>
<svg version="1.1" xmlns:xlink="http://www.w3.org/1999/xlink" width="54px" height="43px" xmlns="http://www.w3.org/2000/svg">
  <g transform="matrix(1 0 0 1 -814 -238 )">
    <path d="M 814 238  L 868 238  L 868 281  L 814 281  L 814 238  " fill-rule="nonzero" fill="#cccccc" stroke="none" />
    <path d="M 817 241  L 865 241  L 865 278  L 817 278  L 817 241  " fill-rule="nonzero" fill="#ffffff" stroke="none" />
    <path d="M 845.305 250.9  C 843.499 250.9  842.08 249.481  842.08 247.675  C 842.08 245.869  843.499 244.45  845.305 244.45  C 847.111 244.45  848.53 245.869  848.53 247.675  C 848.53 249.481  847.111 250.9  845.305 250.9  " fill-rule="nonzero" fill="#cccccc" stroke="none" />
    <path d="M 818 277  L 818 257.75  L 829.5 249  L 845.6 260.277777777778  L 854.8 254.25  L 864 260.277777777778  L 864 277  L 818 277  " fill-rule="nonzero" fill="#169bd5" stroke="none" />
  </g>
</svg>