<?xml version="1.0" encoding="utf-8"?>
<svg version="1.1" xmlns:xlink="http://www.w3.org/1999/xlink" width="12px" height="12px" viewBox="225 242  12 12" xmlns="http://www.w3.org/2000/svg">
  <path d="M 231 242  C 234.36 242  237 244.64  237 248  C 237 251.36  234.36 254  231 254  C 227.64 254  225 251.36  225 248  C 225 244.64  227.64 242  231 242  Z " fill-rule="nonzero" fill="#f0f0f0" stroke="none" />
  <path d="M 231 242.5  C 234.08 242.5  236.5 244.92  236.5 248  C 236.5 251.08  234.08 253.5  231 253.5  C 227.92 253.5  225.5 251.08  225.5 248  C 225.5 244.92  227.92 242.5  231 242.5  Z " stroke-width="1" stroke="#797979" fill="none" />
  <path d="M 231 251  C 229.32 251  228 249.68  228 248  C 228 246.32  229.32 245  231 245  C 232.68 245  234 246.32  234 248  C 234 249.68  232.68 251  231 251  " fill-rule="nonzero" fill="#797979" stroke="none" />
</svg>