<?xml version="1.0" encoding="utf-8"?>
<svg version="1.1" xmlns:xlink="http://www.w3.org/1999/xlink" width="12px" height="12px" viewBox="1911 710  12 12" xmlns="http://www.w3.org/2000/svg">
  <path d="M 1917 710  C 1920.36 710  1923 712.64  1923 716  C 1923 719.36  1920.36 722  1917 722  C 1913.64 722  1911 719.36  1911 716  C 1911 712.64  1913.64 710  1917 710  Z " fill-rule="nonzero" fill="#f0f0f0" stroke="none" />
  <path d="M 1917 710.5  C 1920.08 710.5  1922.5 712.92  1922.5 716  C 1922.5 719.08  1920.08 721.5  1917 721.5  C 1913.92 721.5  1911.5 719.08  1911.5 716  C 1911.5 712.92  1913.92 710.5  1917 710.5  Z " stroke-width="1" stroke="#797979" fill="none" />
  <path d="M 1917 719  C 1915.32 719  1914 717.68  1914 716  C 1914 714.32  1915.32 713  1917 713  C 1918.68 713  1920 714.32  1920 716  C 1920 717.68  1918.68 719  1917 719  " fill-rule="nonzero" fill="#797979" stroke="none" />
</svg>