<?xml version="1.0" encoding="utf-8"?>
<svg version="1.1" xmlns:xlink="http://www.w3.org/1999/xlink" width="26px" height="20px" xmlns="http://www.w3.org/2000/svg">
  <g transform="matrix(1 0 0 1 -180 -5328 )">
    <path d="M 1.85714285714286 10  C 3.47247023809524 12.5595238095238  5.53757440476191 14.4196428571429  8.05245535714286 15.5803571428571  L 9.18415178571429 13.4821428571429  C 8.34263392857143 12.8571428571429  7.68489583333333 12.0684523809524  7.2109375 11.1160714285714  C 6.73697916666667 10.1636904761905  6.5 9.15674603174603  6.5 8.09523809523809  C 6.5 6.89484126984127  6.79501488095238 5.77876984126984  7.38504464285714 4.74702380952381  C 5.17001488095238 5.90773809523809  3.32738095238095 7.65873015873016  1.85714285714286 10  Z M 13.4933035714286 4.79166666666667  C 13.6287202380952 4.65277777777778  13.6964285714286 4.48412698412698  13.6964285714286 4.28571428571429  C 13.6964285714286 4.08730158730159  13.6287202380952 3.91865079365079  13.4933035714286 3.7797619047619  C 13.3578869047619 3.64087301587301  13.1934523809524 3.57142857142857  13 3.57142857142857  C 11.7909226190476 3.57142857142857  10.7535342261905 4.01537698412698  9.88783482142857 4.90327380952381  C 9.02213541666667 5.79117063492063  8.58928571428571 6.85515873015873  8.58928571428571 8.09523809523809  C 8.58928571428571 8.29365079365079  8.65699404761905 8.46230158730159  8.79241071428571 8.60119047619048  C 8.92782738095238 8.74007936507936  9.09226190476191 8.80952380952381  9.28571428571429 8.80952380952381  C 9.47916666666667 8.80952380952381  9.64360119047619 8.74007936507936  9.77901785714286 8.60119047619048  C 9.91443452380952 8.46230158730159  9.98214285714286 8.29365079365079  9.98214285714286 8.09523809523809  C 9.98214285714286 7.24206349206349  10.2771577380952 6.51289682539683  10.8671875 5.90773809523809  C 11.4572172619048 5.30257936507936  12.1681547619048 5  13 5  C 13.1934523809524 5  13.3578869047619 4.93055555555555  13.4933035714286 4.79166666666667  Z M 18.7310267857143 1.04166666666667  C 18.8857886904762 1.14087301587301  18.9631696428571 1.27480158730159  18.9631696428571 1.44345238095238  C 18.9631696428571 1.51289682539682  18.9583333333333 1.55753968253968  18.9486607142857 1.57738095238095  C 17.9233630952381 3.45238095238095  16.3950892857143 6.26488095238095  14.3638392857143 10.014880952381  C 12.3325892857143 13.764880952381  10.8091517857143 16.5724206349206  9.79352678571429 18.4375  L 9.08258928571429 19.7619047619048  C 8.98586309523809 19.9206349206349  8.85044642857143 20  8.67633928571429 20  C 8.56026785714286 20  7.91220238095238 19.6527777777778  6.73214285714286 18.9583333333333  C 6.57738095238095 18.859126984127  6.5 18.7202380952381  6.5 18.5416666666667  C 6.5 18.422619047619  6.71279761904762 17.9910714285714  7.13839285714286 17.2470238095238  C 5.75520833333333 16.6021825396825  4.48084077380952 15.7440476190476  3.31529017857143 14.672619047619  C 2.14973958333333 13.6011904761905  1.14136904761905 12.3859126984127  0.290178571428571 11.0267857142857  C 0.0967261904761905 10.719246031746  0 10.3769841269841  0 10  C 0 9.62301587301587  0.0967261904761905 9.28075396825397  0.290178571428571 8.97321428571429  C 1.77008928571429 6.64186507936508  3.60788690476191 4.8015873015873  5.80357142857143 3.45238095238095  C 7.99925595238095 2.1031746031746  10.3980654761905 1.42857142857143  13 1.42857142857143  C 13.8608630952381 1.42857142857143  14.7313988095238 1.51289682539682  15.6116071428571 1.68154761904762  L 16.3950892857143 0.238095238095237  C 16.4918154761905 0.0793650793650791  16.6272321428571 0  16.8013392857143 0  C 16.8497023809524 0  16.936755952381 0.0297619047619047  17.0625 0.089285714285714  C 17.188244047619 0.148809523809523  17.3381696428571 0.225694444444442  17.5122767857143 0.319940476190477  C 17.6863839285714 0.414186507936507  17.8459821428571 0.505952380952381  17.9910714285714 0.595238095238095  C 18.1361607142857 0.684523809523809  18.2885044642857 0.776289682539679  18.4481026785714 0.870535714285714  C 18.6077008928571 0.964781746031744  18.7020089285714 1.0218253968254  18.7310267857143 1.04166666666667  Z M 19.3839285714286 6.84523809523809  C 19.4613095238095 7.29166666666667  19.5 7.70833333333333  19.5 8.09523809523809  C 19.5 9.47420634920635  19.117931547619 10.7316468253968  18.3537946428571 11.8675595238095  C 17.5896577380952 13.0034722222222  16.578869047619 13.8194444444444  15.3214285714286 14.3154761904762  L 19.3839285714286 6.84523809523809  Z M 25.7098214285714 8.97321428571429  C 25.9032738095238 9.31051587301587  26 9.65277777777778  26 10  C 26 10.3472222222222  25.9032738095238 10.6894841269841  25.7098214285714 11.0267857142857  C 25.3325892857143 11.6617063492063  24.805431547619 12.3809523809524  24.1283482142857 13.1845238095238  C 22.6774553571429 14.890873015873  20.996837797619 16.2152777777778  19.0864955357143 17.1577380952381  C 17.1761532738095 18.1001984126984  15.1473214285714 18.5714285714286  13 18.5714285714286  L 14.0736607142857 16.6071428571429  C 16.124255952381 16.4285714285714  18.0225074404762 15.7490079365079  19.7684151785714 14.5684523809524  C 21.5143229166667 13.3878968253968  22.9724702380952 11.8650793650794  24.1428571428571 10  C 23.030505952381 8.22420634920635  21.6666666666667 6.76587301587302  20.0513392857143 5.625  L 20.9654017857143 3.95833333333333  C 21.8843005952381 4.59325396825396  22.7669270833333 5.35218253968254  23.61328125 6.23511904761905  C 24.4596354166667 7.11805555555555  25.1584821428571 8.03075396825397  25.7098214285714 8.97321428571429  Z " fill-rule="nonzero" fill="#000000" stroke="none" transform="matrix(1 0 0 1 180 5328 )" />
  </g>
</svg>