<?xml version="1.0" encoding="utf-8"?>
<svg version="1.1" xmlns:xlink="http://www.w3.org/1999/xlink" width="18px" height="17px" xmlns="http://www.w3.org/2000/svg">
  <g transform="matrix(1 0 0 1 -1949 -4079 )">
    <path d="M 1958 4079  C 1963.04 4079  1967 4082.74  1967 4087.5  C 1967 4092.26  1963.04 4096  1958 4096  C 1952.96 4096  1949 4092.26  1949 4087.5  C 1949 4082.74  1952.96 4079  1958 4079  Z " fill-rule="nonzero" fill="#95f204" stroke="none" />
    <path d="M 1958 4079.5  C 1962.76 4079.5  1966.5 4083.02  1966.5 4087.5  C 1966.5 4091.98  1962.76 4095.5  1958 4095.5  C 1953.24 4095.5  1949.5 4091.98  1949.5 4087.5  C 1949.5 4083.02  1953.24 4079.5  1958 4079.5  Z " stroke-width="1" stroke="#797979" fill="none" />
  </g>
</svg>