<?xml version="1.0" encoding="utf-8"?>
<svg version="1.1" xmlns:xlink="http://www.w3.org/1999/xlink" width="18px" height="17px" xmlns="http://www.w3.org/2000/svg">
  <g transform="matrix(1 0 0 1 -1970 -4079 )">
    <path d="M 1979 4079  C 1984.04 4079  1988 4082.74  1988 4087.5  C 1988 4092.26  1984.04 4096  1979 4096  C 1973.96 4096  1970 4092.26  1970 4087.5  C 1970 4082.74  1973.96 4079  1979 4079  Z " fill-rule="nonzero" fill="#ffffff" stroke="none" />
    <path d="M 1979 4079.5  C 1983.76 4079.5  1987.5 4083.02  1987.5 4087.5  C 1987.5 4091.98  1983.76 4095.5  1979 4095.5  C 1974.24 4095.5  1970.5 4091.98  1970.5 4087.5  C 1970.5 4083.02  1974.24 4079.5  1979 4079.5  Z " stroke-width="1" stroke="#797979" fill="none" />
  </g>
</svg>