<?xml version="1.0" encoding="utf-8"?>
<svg version="1.1" xmlns:xlink="http://www.w3.org/1999/xlink" width="12px" height="12px" viewBox="1890 125  12 12" xmlns="http://www.w3.org/2000/svg">
  <path d="M 1896 125  C 1899.36 125  1902 127.64  1902 131  C 1902 134.36  1899.36 137  1896 137  C 1892.64 137  1890 134.36  1890 131  C 1890 127.64  1892.64 125  1896 125  Z " fill-rule="nonzero" fill="#f0f0f0" stroke="none" />
  <path d="M 1896 125.5  C 1899.08 125.5  1901.5 127.92  1901.5 131  C 1901.5 134.08  1899.08 136.5  1896 136.5  C 1892.92 136.5  1890.5 134.08  1890.5 131  C 1890.5 127.92  1892.92 125.5  1896 125.5  Z " stroke-width="1" stroke="#797979" fill="none" />
  <path d="M 1896 134  C 1894.32 134  1893 132.68  1893 131  C 1893 129.32  1894.32 128  1896 128  C 1897.68 128  1899 129.32  1899 131  C 1899 132.68  1897.68 134  1896 134  " fill-rule="nonzero" fill="#797979" stroke="none" />
</svg>