<?xml version="1.0" encoding="utf-8"?>
<svg version="1.1" xmlns:xlink="http://www.w3.org/1999/xlink" width="12px" height="12px" viewBox="1923 197  12 12" xmlns="http://www.w3.org/2000/svg">
  <path d="M 1929 197  C 1932.36 197  1935 199.64  1935 203  C 1935 206.36  1932.36 209  1929 209  C 1925.64 209  1923 206.36  1923 203  C 1923 199.64  1925.64 197  1929 197  Z " fill-rule="nonzero" fill="#f0f0f0" stroke="none" />
  <path d="M 1929 197.5  C 1932.08 197.5  1934.5 199.92  1934.5 203  C 1934.5 206.08  1932.08 208.5  1929 208.5  C 1925.92 208.5  1923.5 206.08  1923.5 203  C 1923.5 199.92  1925.92 197.5  1929 197.5  Z " stroke-width="1" stroke="#797979" fill="none" />
  <path d="M 1929 206  C 1927.32 206  1926 204.68  1926 203  C 1926 201.32  1927.32 200  1929 200  C 1930.68 200  1932 201.32  1932 203  C 1932 204.68  1930.68 206  1929 206  " fill-rule="nonzero" fill="#797979" stroke="none" />
</svg>