<?xml version="1.0" encoding="utf-8"?>
<svg version="1.1" xmlns:xlink="http://www.w3.org/1999/xlink" width="12px" height="12px" viewBox="1802 174  12 12" xmlns="http://www.w3.org/2000/svg">
  <path d="M 1808 174  C 1811.36 174  1814 176.64  1814 180  C 1814 183.36  1811.36 186  1808 186  C 1804.64 186  1802 183.36  1802 180  C 1802 176.64  1804.64 174  1808 174  Z " fill-rule="nonzero" fill="#f0f0f0" stroke="none" />
  <path d="M 1808 174.5  C 1811.08 174.5  1813.5 176.92  1813.5 180  C 1813.5 183.08  1811.08 185.5  1808 185.5  C 1804.92 185.5  1802.5 183.08  1802.5 180  C 1802.5 176.92  1804.92 174.5  1808 174.5  Z " stroke-width="1" stroke="#797979" fill="none" />
  <path d="M 1808 183  C 1806.32 183  1805 181.68  1805 180  C 1805 178.32  1806.32 177  1808 177  C 1809.68 177  1811 178.32  1811 180  C 1811 181.68  1809.68 183  1808 183  " fill-rule="nonzero" fill="#797979" stroke="none" />
</svg>