<?xml version="1.0" encoding="utf-8"?>
<svg version="1.1" xmlns:xlink="http://www.w3.org/1999/xlink" width="12px" height="12px" viewBox="1912 174  12 12" xmlns="http://www.w3.org/2000/svg">
  <path d="M 1918 174  C 1921.36 174  1924 176.64  1924 180  C 1924 183.36  1921.36 186  1918 186  C 1914.64 186  1912 183.36  1912 180  C 1912 176.64  1914.64 174  1918 174  Z " fill-rule="nonzero" fill="#f0f0f0" stroke="none" />
  <path d="M 1918 174.5  C 1921.08 174.5  1923.5 176.92  1923.5 180  C 1923.5 183.08  1921.08 185.5  1918 185.5  C 1914.92 185.5  1912.5 183.08  1912.5 180  C 1912.5 176.92  1914.92 174.5  1918 174.5  Z " stroke-width="1" stroke="#797979" fill="none" />
  <path d="M 1918 183  C 1916.32 183  1915 181.68  1915 180  C 1915 178.32  1916.32 177  1918 177  C 1919.68 177  1921 178.32  1921 180  C 1921 181.68  1919.68 183  1918 183  " fill-rule="nonzero" fill="#797979" stroke="none" />
</svg>