<?xml version="1.0" encoding="utf-8"?>
<svg version="1.1" xmlns:xlink="http://www.w3.org/1999/xlink" width="12px" height="12px" viewBox="1911 200  12 12" xmlns="http://www.w3.org/2000/svg">
  <path d="M 1917 200  C 1920.36 200  1923 202.64  1923 206  C 1923 209.36  1920.36 212  1917 212  C 1913.64 212  1911 209.36  1911 206  C 1911 202.64  1913.64 200  1917 200  Z " fill-rule="nonzero" fill="#f0f0f0" stroke="none" />
  <path d="M 1917 200.5  C 1920.08 200.5  1922.5 202.92  1922.5 206  C 1922.5 209.08  1920.08 211.5  1917 211.5  C 1913.92 211.5  1911.5 209.08  1911.5 206  C 1911.5 202.92  1913.92 200.5  1917 200.5  Z " stroke-width="1" stroke="#797979" fill="none" />
  <path d="M 1917 209  C 1915.32 209  1914 207.68  1914 206  C 1914 204.32  1915.32 203  1917 203  C 1918.68 203  1920 204.32  1920 206  C 1920 207.68  1918.68 209  1917 209  " fill-rule="nonzero" fill="#797979" stroke="none" />
</svg>