<?xml version="1.0" encoding="utf-8"?>
<svg version="1.1" xmlns:xlink="http://www.w3.org/1999/xlink" width="12px" height="12px" viewBox="1801 200  12 12" xmlns="http://www.w3.org/2000/svg">
  <path d="M 1807 200  C 1810.36 200  1813 202.64  1813 206  C 1813 209.36  1810.36 212  1807 212  C 1803.64 212  1801 209.36  1801 206  C 1801 202.64  1803.64 200  1807 200  Z " fill-rule="nonzero" fill="#f0f0f0" stroke="none" />
  <path d="M 1807 200.5  C 1810.08 200.5  1812.5 202.92  1812.5 206  C 1812.5 209.08  1810.08 211.5  1807 211.5  C 1803.92 211.5  1801.5 209.08  1801.5 206  C 1801.5 202.92  1803.92 200.5  1807 200.5  Z " stroke-width="1" stroke="#797979" fill="none" />
  <path d="M 1807 209  C 1805.32 209  1804 207.68  1804 206  C 1804 204.32  1805.32 203  1807 203  C 1808.68 203  1810 204.32  1810 206  C 1810 207.68  1808.68 209  1807 209  " fill-rule="nonzero" fill="#797979" stroke="none" />
</svg>