<?xml version="1.0" encoding="utf-8"?>
<svg version="1.1" xmlns:xlink="http://www.w3.org/1999/xlink" width="26px" height="24px" xmlns="http://www.w3.org/2000/svg">
  <g transform="matrix(1 0 0 1 -56 -825 )">
    <path d="M 18.890625 21.0661625708885  L 17.765625 14.6994328922495  L 22.546875 10.2079395085066  L 15.953125 9.2703213610586  L 13 3.49338374291115  L 10.046875 9.2703213610586  L 3.453125 10.2079395085066  L 8.234375 14.6994328922495  L 7.09375 21.0661625708885  L 13 18.0567107750473  L 18.890625 21.0661625708885  Z M 25.125 8.60491493383743  C 25.7083333333333 8.69565217391304  26 8.92753623188406  26 9.30056710775047  C 26 9.52236925015753  25.8645833333333 9.7643352236925  25.59375 10.0264650283554  L 19.921875 15.3799621928166  L 21.265625 22.9413988657845  C 21.2760416666667 23.0119722747322  21.28125 23.1127914303718  21.28125 23.2438563327032  C 21.28125 23.7479521109011  21.0677083333333 24  20.640625 24  C 20.4427083333333 24  20.234375 23.9395085066163  20.015625 23.8185255198488  L 13 20.2495274102079  L 5.984375 23.8185255198488  C 5.75520833333333 23.9395085066163  5.546875 24  5.359375 24  C 5.140625 24  4.9765625 23.9269061121613  4.8671875 23.7807183364839  C 4.7578125 23.6345305608066  4.703125 23.4555765595463  4.703125 23.2438563327032  C 4.703125 23.1833648393195  4.71354166666667 23.0825456836799  4.734375 22.9413988657845  L 6.078125 15.3799621928166  L 0.390625 10.0264650283554  C 0.130208333333333 9.75425330812854  0 9.51228733459357  0 9.30056710775047  C 0 8.92753623188406  0.291666666666667 8.69565217391304  0.875 8.60491493383743  L 8.71875 7.50094517958412  L 12.234375 0.620037807183364  C 12.4322916666667 0.20667926906112  12.6875 0  13 0  C 13.3125 0  13.5677083333333 0.20667926906112  13.765625 0.620037807183364  L 17.28125 7.50094517958412  L 25.125 8.60491493383743  Z " fill-rule="nonzero" fill="#000000" stroke="none" transform="matrix(1 0 0 1 56 825 )" />
  </g>
</svg>