<?xml version="1.0" encoding="utf-8"?>
<svg version="1.1" xmlns:xlink="http://www.w3.org/1999/xlink" width="16px" height="16px" xmlns="http://www.w3.org/2000/svg">
  <g transform="matrix(1 0 0 1 -726 -293 )">
    <path d="M 734 293  C 738.48 293  742 296.52  742 301  C 742 305.48  738.48 309  734 309  C 729.52 309  726 305.48  726 301  C 726 296.52  729.52 293  734 293  Z " fill-rule="nonzero" fill="#d9001b" stroke="none" />
    <path d="M 734 293.5  C 738.2 293.5  741.5 296.8  741.5 301  C 741.5 305.2  738.2 308.5  734 308.5  C 729.8 308.5  726.5 305.2  726.5 301  C 726.5 296.8  729.8 293.5  734 293.5  Z " stroke-width="1" stroke="#797979" fill="none" />
  </g>
</svg>