<?xml version="1.0" encoding="utf-8"?>
<svg version="1.1" xmlns:xlink="http://www.w3.org/1999/xlink" width="18px" height="17px" xmlns="http://www.w3.org/2000/svg">
  <g transform="matrix(1 0 0 1 -1564 -512 )">
    <path d="M 1573 512  C 1578.04 512  1582 515.74  1582 520.5  C 1582 525.26  1578.04 529  1573 529  C 1567.96 529  1564 525.26  1564 520.5  C 1564 515.74  1567.96 512  1573 512  Z " fill-rule="nonzero" fill="#ffffff" stroke="none" />
    <path d="M 1573 512.5  C 1577.76 512.5  1581.5 516.02  1581.5 520.5  C 1581.5 524.98  1577.76 528.5  1573 528.5  C 1568.24 528.5  1564.5 524.98  1564.5 520.5  C 1564.5 516.02  1568.24 512.5  1573 512.5  Z " stroke-width="1" stroke="#797979" fill="none" />
  </g>
</svg>