<?xml version="1.0" encoding="utf-8"?>
<svg version="1.1" xmlns:xlink="http://www.w3.org/1999/xlink" width="16px" height="16px" xmlns="http://www.w3.org/2000/svg">
  <g transform="matrix(1 0 0 1 -746 -293 )">
    <path d="M 754 293  C 758.48 293  762 296.52  762 301  C 762 305.48  758.48 309  754 309  C 749.52 309  746 305.48  746 301  C 746 296.52  749.52 293  754 293  Z " fill-rule="nonzero" fill="#ffffff" stroke="none" />
    <path d="M 754 293.5  C 758.2 293.5  761.5 296.8  761.5 301  C 761.5 305.2  758.2 308.5  754 308.5  C 749.8 308.5  746.5 305.2  746.5 301  C 746.5 296.8  749.8 293.5  754 293.5  Z " stroke-width="1" stroke="#797979" fill="none" />
  </g>
</svg>