<?xml version="1.0" encoding="utf-8"?>
<svg version="1.1" xmlns:xlink="http://www.w3.org/1999/xlink" width="16px" height="16px" xmlns="http://www.w3.org/2000/svg">
  <g transform="matrix(1 0 0 1 -243 -309 )">
    <path d="M 251 309  C 255.48 309  259 312.52  259 317  C 259 321.48  255.48 325  251 325  C 246.52 325  243 321.48  243 317  C 243 312.52  246.52 309  251 309  Z " fill-rule="nonzero" fill="#d9001b" stroke="none" />
    <path d="M 251 309.5  C 255.2 309.5  258.5 312.8  258.5 317  C 258.5 321.2  255.2 324.5  251 324.5  C 246.8 324.5  243.5 321.2  243.5 317  C 243.5 312.8  246.8 309.5  251 309.5  Z " stroke-width="1" stroke="#797979" fill="none" />
  </g>
</svg>