<?xml version="1.0" encoding="utf-8"?>
<svg version="1.1" xmlns:xlink="http://www.w3.org/1999/xlink" width="16px" height="16px" xmlns="http://www.w3.org/2000/svg">
  <g transform="matrix(1 0 0 1 -263 -309 )">
    <path d="M 271 309  C 275.48 309  279 312.52  279 317  C 279 321.48  275.48 325  271 325  C 266.52 325  263 321.48  263 317  C 263 312.52  266.52 309  271 309  Z " fill-rule="nonzero" fill="#ffffff" stroke="none" />
    <path d="M 271 309.5  C 275.2 309.5  278.5 312.8  278.5 317  C 278.5 321.2  275.2 324.5  271 324.5  C 266.8 324.5  263.5 321.2  263.5 317  C 263.5 312.8  266.8 309.5  271 309.5  Z " stroke-width="1" stroke="#797979" fill="none" />
  </g>
</svg>