<?xml version="1.0" encoding="utf-8"?>
<svg version="1.1" xmlns:xlink="http://www.w3.org/1999/xlink" width="17px" height="15px" xmlns="http://www.w3.org/2000/svg">
  <g transform="matrix(1 0 0 1 -3250 -470 )">
    <path d="M 15.6955915178571 13.8490513392857  C 15.7556733630952 13.7960379464286  15.7857142857143 13.7332589285714  15.7857142857143 13.6607142857143  L 15.7857142857143 4.55357142857143  C 15.7857142857143 4.48102678571428  15.7556733630952 4.41824776785714  15.6955915178571 4.365234375  C 15.635509672619 4.31222098214286  15.5643601190476 4.28571428571429  15.4821428571429 4.28571428571429  L 5.16071428571429 4.28571428571429  C 5.07849702380952 4.28571428571429  5.0073474702381 4.31222098214286  4.947265625 4.365234375  C 4.88718377976191 4.41824776785714  4.85714285714286 4.48102678571428  4.85714285714286 4.55357142857143  L 4.85714285714286 13.6607142857143  C 4.85714285714286 13.7332589285714  4.88718377976191 13.7960379464286  4.947265625 13.8490513392857  C 5.0073474702381 13.9020647321429  5.07849702380952 13.9285714285714  5.16071428571429 14  L 15.4821428571429 14  C 15.5643601190476 13.9285714285714  15.635509672619 13.9020647321429  15.6955915178571 13.8490513392857  Z M 16.5541294642857 3.60770089285714  C 16.8513764880952 3.86997767857143  17 4.18526785714286  17 4.55357142857143  L 17 13.6607142857143  C 17 14.0290178571429  16.8513764880952 14.3443080357143  16.5541294642857 14.6065848214286  C 16.2568824404762 14.8688616071429  15.8995535714286 15  15.4821428571429 15  L 5.16071428571429 15  C 4.74330357142857 15  4.38597470238095 14.8688616071429  4.08872767857143 14.6065848214286  C 3.7914806547619 14.3443080357143  3.64285714285714 14.0290178571429  3.64285714285714 13.6607142857143  L 3.64285714285714 4.55357142857143  C 3.64285714285714 4.18526785714286  3.7914806547619 3.86997767857143  4.08872767857143 3.60770089285714  C 4.38597470238095 3.34542410714286  4.74330357142857 3.21428571428571  5.16071428571429 3.21428571428571  L 15.4821428571429 3.21428571428571  C 15.8995535714286 3.21428571428571  16.2568824404762 3.34542410714286  16.5541294642857 3.60770089285714  Z M 12.9112723214286 0.393415178571429  C 13.2085193452381 0.655691964285713  13.3571428571429 0.970982142857144  13.3571428571429 1.33928571428571  L 13.3571428571429 2.67857142857143  L 12.1428571428571 2.67857142857143  L 12.1428571428571 1.33928571428571  C 12.1428571428571 1.26674107142857  12.1128162202381 1.20396205357143  12.052734375 1.15094866071429  C 11.9926525297619 1.09793526785714  11.9215029761905 1.07142857142857  11.8392857142857 1  L 1.51785714285714 1  C 1.43563988095238 1.07142857142857  1.36449032738095 1.09793526785714  1.30440848214286 1.15094866071429  C 1.24432663690476 1.20396205357143  1.21428571428571 1.26674107142857  1.21428571428571 1.33928571428571  L 1.21428571428571 10.4464285714286  C 1.21428571428571 10.5189732142857  1.24432663690476 10.5817522321429  1.30440848214286 10.634765625  C 1.36449032738095 10.6877790178571  1.43563988095238 10.7142857142857  1.51785714285714 10.7142857142857  L 3.03571428571429 10.7142857142857  L 3.03571428571429 11.7857142857143  L 1.51785714285714 11.7857142857143  C 1.10044642857143 11.7857142857143  0.74311755952381 11.6545758928571  0.445870535714286 11.3922991071429  C 0.148623511904762 11.1300223214286  0 10.8147321428571  0 10.4464285714286  L 0 1.33928571428571  C 0 0.970982142857144  0.148623511904762 0.655691964285713  0.445870535714286 0.393415178571429  C 0.74311755952381 0.131138392857143  1.10044642857143 0  1.51785714285714 0  L 11.8392857142857 0  C 12.2566964285714 0  12.614025297619 0.131138392857143  12.9112723214286 0.393415178571429  Z " fill-rule="nonzero" fill="#000000" stroke="none" transform="matrix(1 0 0 1 3250 470 )" />
  </g>
</svg>