<?xml version="1.0" encoding="utf-8"?>
<svg version="1.1" xmlns:xlink="http://www.w3.org/1999/xlink" width="19px" height="15px" xmlns="http://www.w3.org/2000/svg">
  <g transform="matrix(1 0 0 1 -1646 -754 )">
    <path d="M 17.5421316964286 13.8490513392857  C 17.6092819940476 13.7960379464286  17.6428571428571 13.7332589285714  17.6428571428571 13.6607142857143  L 17.6428571428571 4.55357142857143  C 17.6428571428571 4.48102678571428  17.6092819940476 4.41824776785714  17.5421316964286 4.365234375  C 17.4749813988095 4.31222098214286  17.3954613095238 4.28571428571429  17.3035714285714 4.28571428571429  L 5.76785714285714 4.28571428571429  C 5.67596726190476 4.28571428571429  5.59644717261905 4.31222098214286  5.529296875 4.365234375  C 5.46214657738095 4.41824776785714  5.42857142857143 4.48102678571428  5.42857142857143 4.55357142857143  L 5.42857142857143 13.6607142857143  C 5.42857142857143 13.7332589285714  5.46214657738095 13.7960379464286  5.529296875 13.8490513392857  C 5.59644717261905 13.9020647321429  5.67596726190476 13.9285714285714  5.76785714285714 14  L 17.3035714285714 14  C 17.3954613095238 13.9285714285714  17.4749813988095 13.9020647321429  17.5421316964286 13.8490513392857  Z M 18.5016741071429 3.60770089285714  C 18.8338913690476 3.86997767857143  19 4.18526785714286  19 4.55357142857143  L 19 13.6607142857143  C 19 14.0290178571429  18.8338913690476 14.3443080357143  18.5016741071429 14.6065848214286  C 18.1694568452381 14.8688616071429  17.7700892857143 15  17.3035714285714 15  L 5.76785714285714 15  C 5.30133928571429 15  4.90197172619048 14.8688616071429  4.56975446428571 14.6065848214286  C 4.23753720238095 14.3443080357143  4.07142857142857 14.0290178571429  4.07142857142857 13.6607142857143  L 4.07142857142857 4.55357142857143  C 4.07142857142857 4.18526785714286  4.23753720238095 3.86997767857143  4.56975446428571 3.60770089285714  C 4.90197172619048 3.34542410714286  5.30133928571429 3.21428571428571  5.76785714285714 3.21428571428571  L 17.3035714285714 3.21428571428571  C 17.7700892857143 3.21428571428571  18.1694568452381 3.34542410714286  18.5016741071429 3.60770089285714  Z M 14.4302455357143 0.393415178571429  C 14.762462797619 0.655691964285713  14.9285714285714 0.970982142857144  14.9285714285714 1.33928571428571  L 14.9285714285714 2.67857142857143  L 13.5714285714286 2.67857142857143  L 13.5714285714286 1.33928571428571  C 13.5714285714286 1.26674107142857  13.537853422619 1.20396205357143  13.470703125 1.15094866071429  C 13.403552827381 1.09793526785714  13.3240327380952 1.07142857142857  13.2321428571429 1  L 1.69642857142857 1  C 1.60453869047619 1.07142857142857  1.52501860119048 1.09793526785714  1.45786830357143 1.15094866071429  C 1.39071800595238 1.20396205357143  1.35714285714286 1.26674107142857  1.35714285714286 1.33928571428571  L 1.35714285714286 10.4464285714286  C 1.35714285714286 10.5189732142857  1.39071800595238 10.5817522321429  1.45786830357143 10.634765625  C 1.52501860119048 10.6877790178571  1.60453869047619 10.7142857142857  1.69642857142857 10.7142857142857  L 3.39285714285714 10.7142857142857  L 3.39285714285714 11.7857142857143  L 1.69642857142857 11.7857142857143  C 1.22991071428571 11.7857142857143  0.830543154761905 11.6545758928571  0.498325892857143 11.3922991071429  C 0.166108630952381 11.1300223214286  0 10.8147321428571  0 10.4464285714286  L 0 1.33928571428571  C 0 0.970982142857144  0.166108630952381 0.655691964285713  0.498325892857143 0.393415178571429  C 0.830543154761905 0.131138392857143  1.22991071428571 0  1.69642857142857 0  L 13.2321428571429 0  C 13.6986607142857 0  14.0980282738095 0.131138392857143  14.4302455357143 0.393415178571429  Z " fill-rule="nonzero" fill="#000000" stroke="none" transform="matrix(1 0 0 1 1646 754 )" />
  </g>
</svg>