<?xml version="1.0" encoding="utf-8"?>
<svg version="1.1" xmlns:xlink="http://www.w3.org/1999/xlink" width="9px" height="9px" xmlns="http://www.w3.org/2000/svg">
  <g transform="matrix(1 0 0 1 -221 -1050 )">
    <path d="M 225.5 1050  C 228.02 1050  230 1051.98  230 1054.5  C 230 1057.02  228.02 1059  225.5 1059  C 222.98 1059  221 1057.02  221 1054.5  C 221 1051.98  222.98 1050  225.5 1050  Z " fill-rule="nonzero" fill="#ffffff" stroke="none" />
    <path d="M 225.5 1050.5  C 227.74 1050.5  229.5 1052.26  229.5 1054.5  C 229.5 1056.74  227.74 1058.5  225.5 1058.5  C 223.26 1058.5  221.5 1056.74  221.5 1054.5  C 221.5 1052.26  223.26 1050.5  225.5 1050.5  Z " stroke-width="1" stroke="#222223" fill="none" />
  </g>
</svg>