<?xml version="1.0" encoding="utf-8"?>
<svg version="1.1" xmlns:xlink="http://www.w3.org/1999/xlink" width="15px" height="13px" xmlns="http://www.w3.org/2000/svg">
  <g transform="matrix(1 0 0 1 -405 -181 )">
    <path d="M 13.8490513392857 12.0025111607143  C 13.9020647321429 11.9565662202381  13.9285714285714 11.9021577380952  13.9285714285714 11.8392857142857  L 13.9285714285714 3.94642857142857  C 13.9285714285714 3.88355654761905  13.9020647321429 3.82914806547619  13.8490513392857 3.783203125  C 13.7960379464286 3.73725818452381  13.7332589285714 3.71428571428571  13.6607142857143 3.71428571428571  L 4.55357142857143 3.71428571428571  C 4.48102678571429 3.71428571428571  4.41824776785714 3.73725818452381  4.365234375 3.783203125  C 4.31222098214286 3.82914806547619  4.28571428571429 3.88355654761905  4.28571428571429 3.94642857142857  L 4.28571428571429 11.8392857142857  C 4.28571428571429 11.9021577380952  4.31222098214286 11.9565662202381  4.365234375 12.0025111607143  C 4.41824776785714 12.0484561011905  4.48102678571429 12.0714285714286  4.55357142857143 12.0714285714286  L 13.6607142857143 12.0714285714286  C 13.7332589285714 12.0714285714286  13.7960379464286 12.0484561011905  13.8490513392857 12.0025111607143  Z M 14.6065848214286 3.12667410714286  C 14.8688616071429 3.3539806547619  15 3.62723214285714  15 3.94642857142857  L 15 11.8392857142857  C 15 12.1584821428571  14.8688616071429 12.4317336309524  14.6065848214286 12.6590401785714  C 14.3443080357143 12.8863467261905  14.0290178571429 13  13.6607142857143 13  L 4.55357142857143 13  C 4.18526785714286 13  3.86997767857143 12.8863467261905  3.60770089285714 12.6590401785714  C 3.34542410714286 12.4317336309524  3.21428571428571 12.1584821428571  3.21428571428571 11.8392857142857  L 3.21428571428571 3.94642857142857  C 3.21428571428571 3.62723214285714  3.34542410714286 3.3539806547619  3.60770089285714 3.12667410714286  C 3.86997767857143 2.89936755952381  4.18526785714286 2.78571428571429  4.55357142857143 2.78571428571429  L 13.6607142857143 2.78571428571429  C 14.0290178571429 2.78571428571429  14.3443080357143 2.89936755952381  14.6065848214286 3.12667410714286  Z M 11.3922991071429 0.340959821428572  C 11.6545758928571 0.568266369047618  11.7857142857143 0.841517857142858  11.7857142857143 1.16071428571429  L 11.7857142857143 2.32142857142857  L 10.7142857142857 2.32142857142857  L 10.7142857142857 1.16071428571429  C 10.7142857142857 1.09784226190476  10.6877790178571 1.0434337797619  10.634765625 0.997488839285714  C 10.5817522321429 0.951543898809523  10.5189732142857 0.928571428571428  10.4464285714286 0.928571428571428  L 1.33928571428571 0.928571428571428  C 1.26674107142857 0.928571428571428  1.20396205357143 0.951543898809523  1.15094866071429 0.997488839285714  C 1.09793526785714 1.0434337797619  1.07142857142857 1.09784226190476  1.07142857142857 1.16071428571429  L 1.07142857142857 9.05357142857143  C 1.07142857142857 9.11644345238095  1.09793526785714 9.17085193452381  1.15094866071429 9.216796875  C 1.20396205357143 9.26274181547619  1.26674107142857 9.28571428571429  1.33928571428571 9.28571428571429  L 2.67857142857143 9.28571428571429  L 2.67857142857143 10.2142857142857  L 1.33928571428571 10.2142857142857  C 0.970982142857143 10.2142857142857  0.655691964285714 10.1006324404762  0.393415178571429 9.87332589285714  C 0.131138392857143 9.64601934523809  0 9.37276785714286  0 9.05357142857143  L 0 1.16071428571429  C 0 0.841517857142858  0.131138392857143 0.568266369047618  0.393415178571429 0.340959821428572  C 0.655691964285714 0.113653273809524  0.970982142857143 0  1.33928571428571 0  L 10.4464285714286 0  C 10.8147321428571 0  11.1300223214286 0.113653273809524  11.3922991071429 0.340959821428572  Z " fill-rule="nonzero" fill="#000000" stroke="none" transform="matrix(1 0 0 1 405 181 )" />
  </g>
</svg>