<?xml version="1.0" encoding="utf-8"?>
<svg version="1.1" xmlns:xlink="http://www.w3.org/1999/xlink" width="17px" height="14px" xmlns="http://www.w3.org/2000/svg">
  <g transform="matrix(1 0 0 1 -208 -188 )">
    <path d="M 15.6955915178571 12.92578125  C 15.7556733630952 12.8763020833333  15.7857142857143 12.8177083333333  15.7857142857143 12.75  L 15.7857142857143 4.25  C 15.7857142857143 4.18229166666667  15.7556733630952 4.12369791666667  15.6955915178571 4.07421875  C 15.635509672619 4.02473958333333  15.5643601190476 4  15.4821428571429 4  L 5.16071428571429 4  C 5.07849702380952 4  5.0073474702381 4.02473958333333  4.947265625 4.07421875  C 4.88718377976191 4.12369791666667  4.85714285714286 4.18229166666667  4.85714285714286 4.25  L 4.85714285714286 12.75  C 4.85714285714286 12.8177083333333  4.88718377976191 12.8763020833333  4.947265625 12.92578125  C 5.0073474702381 12.9752604166667  5.07849702380952 13  5.16071428571429 13  L 15.4821428571429 13  C 15.5643601190476 13  15.635509672619 12.9752604166667  15.6955915178571 12.92578125  Z M 16.5541294642857 3.3671875  C 16.8513764880952 3.61197916666667  17 3.90625  17 4.25  L 17 12.75  C 17 13.09375  16.8513764880952 13.3880208333333  16.5541294642857 13.6328125  C 16.2568824404762 13.8776041666667  15.8995535714286 14  15.4821428571429 14  L 5.16071428571429 14  C 4.74330357142857 14  4.38597470238095 13.8776041666667  4.08872767857143 13.6328125  C 3.7914806547619 13.3880208333333  3.64285714285714 13.09375  3.64285714285714 12.75  L 3.64285714285714 4.25  C 3.64285714285714 3.90625  3.7914806547619 3.61197916666667  4.08872767857143 3.3671875  C 4.38597470238095 3.12239583333333  4.74330357142857 3  5.16071428571429 3  L 15.4821428571429 3  C 15.8995535714286 3  16.2568824404762 3.12239583333333  16.5541294642857 3.3671875  Z M 12.9112723214286 0.3671875  C 13.2085193452381 0.611979166666666  13.3571428571429 0.906250000000001  13.3571428571429 1.25  L 13.3571428571429 2.5  L 12.1428571428571 2.5  L 12.1428571428571 1.25  C 12.1428571428571 1.18229166666667  12.1128162202381 1.12369791666667  12.052734375 1.07421875  C 11.9926525297619 1.02473958333333  11.9215029761905 1  11.8392857142857 1  L 1.51785714285714 1  C 1.43563988095238 1  1.36449032738095 1.02473958333333  1.30440848214286 1.07421875  C 1.24432663690476 1.12369791666667  1.21428571428571 1.18229166666667  1.21428571428571 1.25  L 1.21428571428571 9.75  C 1.21428571428571 9.81770833333333  1.24432663690476 9.87630208333333  1.30440848214286 9.92578125  C 1.36449032738095 9.97526041666667  1.43563988095238 10  1.51785714285714 10  L 3.03571428571429 10  L 3.03571428571429 11  L 1.51785714285714 11  C 1.10044642857143 11  0.74311755952381 10.8776041666667  0.445870535714286 10.6328125  C 0.148623511904762 10.3880208333333  0 10.09375  0 9.75  L 0 1.25  C 0 0.906250000000001  0.148623511904762 0.611979166666666  0.445870535714286 0.3671875  C 0.74311755952381 0.122395833333333  1.10044642857143 0  1.51785714285714 0  L 11.8392857142857 0  C 12.2566964285714 0  12.614025297619 0.122395833333333  12.9112723214286 0.3671875  Z " fill-rule="nonzero" fill="#000000" stroke="none" transform="matrix(1 0 0 1 208 188 )" />
  </g>
</svg>