<?xml version="1.0" encoding="utf-8"?>
<svg version="1.1" xmlns:xlink="http://www.w3.org/1999/xlink" width="16px" height="15px" xmlns="http://www.w3.org/2000/svg">
  <g transform="matrix(1 0 0 1 -1199 -152 )">
    <path d="M 15.6228956228956 11.2121212121212  C 15.8742985409652 11.4478114478114  16 11.7340067340067  16 12.0707070707071  C 16 12.4074074074074  15.8742985409652 12.6936026936027  15.6228956228956 12.9292929292929  L 13.7912457912458 14.6464646464646  C 13.5398428731762 14.8821548821549  13.2345679012346 15  12.8754208754209 15  C 12.5162738496072 15  12.2109988776655 14.8821548821549  11.959595959596 14.6464646464646  L 8 10.9343434343434  L 4.04040404040404 14.6464646464646  C 3.78900112233446 14.8821548821549  3.48372615039282 15  3.12457912457912 15  C 2.76543209876543 15  2.46015712682379 14.8821548821549  2.20875420875421 14.6464646464646  L 0.377104377104377 12.9292929292929  C 0.125701459034792 12.6936026936027  0 12.4074074074074  0 12.0707070707071  C 0 11.7340067340067  0.125701459034792 11.4478114478114  0.377104377104377 11.2121212121212  L 4.33670033670034 7.5  L 0.377104377104377 3.78787878787879  C 0.125701459034792 3.55218855218855  0 3.26599326599327  0 2.92929292929293  C 0 2.59259259259259  0.125701459034792 2.3063973063973  0.377104377104377 2.07070707070707  L 2.20875420875421 0.353535353535354  C 2.46015712682379 0.117845117845117  2.76543209876543 0  3.12457912457912 0  C 3.48372615039282 0  3.78900112233446 0.117845117845117  4.04040404040404 0.353535353535354  L 8 4.06565656565657  L 11.959595959596 0.353535353535354  C 12.2109988776655 0.117845117845117  12.5162738496072 0  12.8754208754209 0  C 13.2345679012346 0  13.5398428731762 0.117845117845117  13.7912457912458 0.353535353535354  L 15.6228956228956 2.07070707070707  C 15.8742985409652 2.3063973063973  16 2.59259259259259  16 2.92929292929293  C 16 3.26599326599327  15.8742985409652 3.55218855218855  15.6228956228956 3.78787878787879  L 11.6632996632997 7.5  L 15.6228956228956 11.2121212121212  Z " fill-rule="nonzero" fill="#000000" stroke="none" transform="matrix(1 0 0 1 1199 152 )" />
  </g>
</svg>