<?xml version="1.0" encoding="utf-8"?>
<svg version="1.1" xmlns:xlink="http://www.w3.org/1999/xlink" width="23px" height="17px" xmlns="http://www.w3.org/2000/svg">
  <g transform="matrix(1 0 0 1 -604 -342 )">
    <path d="M 22.4579124579125 12.7070707070707  C 22.8193041526375 12.9741863075196  23 13.2985409652076  23 13.6801346801347  C 23 14.0617283950617  22.8193041526375 14.3860830527497  22.4579124579125 14.6531986531987  L 19.8249158249158 16.5993265993266  C 19.4635241301908 16.8664421997755  19.0246913580247 17  18.5084175084175 17  C 17.9921436588103 17  17.5533108866442 16.8664421997755  17.1919191919192 16.5993265993266  L 11.5 12.3922558922559  L 5.80808080808081 16.5993265993266  C 5.44668911335578 16.8664421997755  5.00785634118968 17  4.49158249158249 17  C 3.97530864197531 17  3.5364758698092 16.8664421997755  3.17508417508418 16.5993265993266  L 0.542087542087542 14.6531986531987  C 0.180695847362514 14.3860830527497  0 14.0617283950617  0 13.6801346801347  C 0 13.2985409652076  0.180695847362514 12.9741863075196  0.542087542087542 12.7070707070707  L 6.23400673400673 8.5  L 0.542087542087542 4.29292929292929  C 0.180695847362514 4.02581369248036  0 3.70145903479237  0 3.31986531986532  C 0 2.93827160493827  0.180695847362514 2.61391694725028  0.542087542087542 2.34680134680135  L 3.17508417508418 0.400673400673401  C 3.5364758698092 0.133557800224466  3.97530864197531 0  4.49158249158249 0  C 5.00785634118968 0  5.44668911335578 0.133557800224466  5.80808080808081 0.400673400673401  L 11.5 4.60774410774411  L 17.1919191919192 0.400673400673401  C 17.5533108866442 0.133557800224466  17.9921436588103 0  18.5084175084175 0  C 19.0246913580247 0  19.4635241301908 0.133557800224466  19.8249158249158 0.400673400673401  L 22.4579124579125 2.34680134680135  C 22.8193041526375 2.61391694725028  23 2.93827160493827  23 3.31986531986532  C 23 3.70145903479237  22.8193041526375 4.02581369248036  22.4579124579125 4.29292929292929  L 16.7659932659933 8.5  L 22.4579124579125 12.7070707070707  Z " fill-rule="nonzero" fill="#000000" stroke="none" transform="matrix(1 0 0 1 604 342 )" />
  </g>
</svg>