<?xml version="1.0" encoding="utf-8"?>
<svg version="1.1" xmlns:xlink="http://www.w3.org/1999/xlink" width="34px" height="31px" xmlns="http://www.w3.org/2000/svg">
  <g transform="matrix(1 0 0 1 -595 -343 )">
    <path d="M 595 343  L 629 343  L 629 374  L 595 374  L 595 343  " fill-rule="nonzero" fill="#cccccc" stroke="none" />
    <path d="M 597 345  L 627 345  L 627 372  L 597 372  L 597 345  " fill-rule="nonzero" fill="#ffffff" stroke="none" />
    <path d="M 615.005 352.3  C 613.703 352.3  612.68 351.277  612.68 349.975  C 612.68 348.673  613.703 347.65  615.005 347.65  C 616.307 347.65  617.33 348.673  617.33 349.975  C 617.33 351.277  616.307 352.3  615.005 352.3  " fill-rule="nonzero" fill="#cccccc" stroke="none" />
    <path d="M 598 371  L 598 357.25  L 605 351  L 614.8 357.323529411765  L 620.4 354.75  L 626 357.323529411765  L 626 371  L 598 371  " fill-rule="nonzero" fill="#169bd5" stroke="none" />
  </g>
</svg>