<?xml version="1.0" encoding="utf-8"?>
<svg version="1.1" xmlns:xlink="http://www.w3.org/1999/xlink" width="68px" height="70px" xmlns="http://www.w3.org/2000/svg">
  <g transform="matrix(1 0 0 1 -1776 -151 )">
    <path d="M 1776 151  L 1844 151  L 1844 221  L 1776 221  L 1776 151  " fill-rule="nonzero" fill="#cccccc" stroke="none" />
    <path d="M 1781 156  L 1839 156  L 1839 216  L 1781 216  L 1781 156  " fill-rule="nonzero" fill="#ffffff" stroke="none" />
    <path d="M 1816.46 171.7  C 1813.604 171.7  1811.36 169.456  1811.36 166.6  C 1811.36 163.744  1813.604 161.5  1816.46 161.5  C 1819.316 161.5  1821.56 163.744  1821.56 166.6  C 1821.56 169.456  1819.316 171.7  1816.46 171.7  " fill-rule="nonzero" fill="#cccccc" stroke="none" />
    <path d="M 1783 215  L 1783 183.65  L 1796.75 169.4  L 1816 180.8  L 1827 177.95  L 1838 180.8  L 1838 215  L 1783 215  " fill-rule="nonzero" fill="#169bd5" stroke="none" />
  </g>
</svg>