<?xml version="1.0" encoding="utf-8"?>
<svg version="1.1" xmlns:xlink="http://www.w3.org/1999/xlink" width="31px" height="29px" xmlns="http://www.w3.org/2000/svg">
  <g transform="matrix(1 0 0 1 -202 -266 )">
    <path d="M 202 266  L 233 266  L 233 295  L 202 295  L 202 266  " fill-rule="nonzero" fill="#cccccc" stroke="none" />
    <path d="M 204 268  L 231 268  L 231 293  L 204 293  L 204 268  " fill-rule="nonzero" fill="#ffffff" stroke="none" />
    <path d="M 220.295 274.7  C 219.077 274.7  218.12 273.743  218.12 272.525  C 218.12 271.307  219.077 270.35  220.295 270.35  C 221.513 270.35  222.47 271.307  222.47 272.525  C 222.47 273.743  221.513 274.7  220.295 274.7  " fill-rule="nonzero" fill="#cccccc" stroke="none" />
    <path d="M 205 293  L 205 279.8  L 211.5 273.8  L 220.6 279.529032258064  L 225.8 277.4  L 231 279.529032258064  L 231 293  L 205 293  " fill-rule="nonzero" fill="#169bd5" stroke="none" />
  </g>
</svg>