<?xml version="1.0" encoding="utf-8"?>
<svg version="1.1" xmlns:xlink="http://www.w3.org/1999/xlink" width="12px" height="12px" viewBox="1769 409  12 12" xmlns="http://www.w3.org/2000/svg">
  <path d="M 1775 409  C 1778.36 409  1781 411.64  1781 415  C 1781 418.36  1778.36 421  1775 421  C 1771.64 421  1769 418.36  1769 415  C 1769 411.64  1771.64 409  1775 409  Z " fill-rule="nonzero" fill="#ffffff" stroke="none" />
  <path d="M 1775 409.5  C 1778.08 409.5  1780.5 411.92  1780.5 415  C 1780.5 418.08  1778.08 420.5  1775 420.5  C 1771.92 420.5  1769.5 418.08  1769.5 415  C 1769.5 411.92  1771.92 409.5  1775 409.5  Z " stroke-width="1" stroke="#797979" fill="none" />
  <path d="M 1775 418  C 1773.32 418  1772 416.68  1772 415  C 1772 413.32  1773.32 412  1775 412  C 1776.68 412  1778 413.32  1778 415  C 1778 416.68  1776.68 418  1775 418  " fill-rule="nonzero" fill="#797979" stroke="none" />
</svg>