<?xml version="1.0" encoding="utf-8"?>
<svg version="1.1" xmlns:xlink="http://www.w3.org/1999/xlink" width="12px" height="12px" viewBox="1878 409  12 12" xmlns="http://www.w3.org/2000/svg">
  <path d="M 1884 409  C 1887.36 409  1890 411.64  1890 415  C 1890 418.36  1887.36 421  1884 421  C 1880.64 421  1878 418.36  1878 415  C 1878 411.64  1880.64 409  1884 409  Z " fill-rule="nonzero" fill="#f0f0f0" stroke="none" />
  <path d="M 1884 409.5  C 1887.08 409.5  1889.5 411.92  1889.5 415  C 1889.5 418.08  1887.08 420.5  1884 420.5  C 1880.92 420.5  1878.5 418.08  1878.5 415  C 1878.5 411.92  1880.92 409.5  1884 409.5  Z " stroke-width="1" stroke="#797979" fill="none" />
  <path d="M 1884 418  C 1882.32 418  1881 416.68  1881 415  C 1881 413.32  1882.32 412  1884 412  C 1885.68 412  1887 413.32  1887 415  C 1887 416.68  1885.68 418  1884 418  " fill-rule="nonzero" fill="#797979" stroke="none" />
</svg>