<?xml version="1.0" encoding="utf-8"?>
<svg version="1.1" xmlns:xlink="http://www.w3.org/1999/xlink" width="18px" height="27px" xmlns="http://www.w3.org/2000/svg">
  <g transform="matrix(1 0 0 1 -2111 -260 )">
    <path d="M 6.43039772727273 22.341796875  C 6.50710227272727 22.236328125  6.54545454545455 22.1015625  6.54545454545455 21.9375  L 6.54545454545455 9.5625  C 6.54545454545455 9.3984375  6.50710227272727 9.263671875  6.43039772727273 9.158203125  C 6.35369318181818 9.052734375  6.25568181818182 9  6.13636363636364 9  L 5.31818181818182 9  C 5.19886363636364 9  5.10085227272727 9.052734375  5.02414772727273 9.158203125  C 4.94744318181818 9.263671875  4.90909090909091 9.3984375  5 9.5625  L 5 21.9375  C 4.90909090909091 22.1015625  4.94744318181818 22.236328125  5.02414772727273 22.341796875  C 5.10085227272727 22.447265625  5.19886363636364 22.5  5.31818181818182 22.5  L 6.13636363636364 22.5  C 6.25568181818182 22.5  6.35369318181818 22.447265625  6.43039772727273 22.341796875  Z M 9.703125 22.341796875  C 9.77982954545454 22.236328125  9.81818181818182 22.1015625  9.81818181818182 21.9375  L 9.81818181818182 9.5625  C 9.81818181818182 9.3984375  9.77982954545454 9.263671875  9.703125 9.158203125  C 9.62642045454546 9.052734375  9.52840909090909 9  9.40909090909091 9  L 8.59090909090909 9  C 8.47159090909091 9  8.37357954545454 9.052734375  8.296875 9.158203125  C 8.22017045454546 9.263671875  8.18181818181818 9.3984375  8.18181818181818 9.5625  L 8.18181818181818 21.9375  C 8.18181818181818 22.1015625  8.22017045454546 22.236328125  8.296875 22.341796875  C 8.37357954545454 22.447265625  8.47159090909091 22.5  8.59090909090909 22.5  L 9.40909090909091 22.5  C 9.52840909090909 22.5  9.62642045454546 22.447265625  9.703125 22.341796875  Z M 12.9758522727273 22.341796875  C 13.0525568181818 22.236328125  13.0909090909091 22.1015625  13 21.9375  L 13 9.5625  C 13.0909090909091 9.3984375  13.0525568181818 9.263671875  12.9758522727273 9.158203125  C 12.8991477272727 9.052734375  12.8011363636364 9  12.6818181818182 9  L 11.8636363636364 9  C 11.7443181818182 9  11.6463068181818 9.052734375  11.5696022727273 9.158203125  C 11.4928977272727 9.263671875  11.4545454545455 9.3984375  11.4545454545455 9.5625  L 11.4545454545455 21.9375  C 11.4545454545455 22.1015625  11.4928977272727 22.236328125  11.5696022727273 22.341796875  C 11.6463068181818 22.447265625  11.7443181818182 22.5  11.8636363636364 22.5  L 12.6818181818182 22.5  C 12.8011363636364 22.5  12.8991477272727 22.447265625  12.9758522727273 22.341796875  Z M 6.76278409090909 2.443359375  L 6.13636363636364 4.5  L 11.8636363636364 4.5  L 11.25 2.443359375  C 11.1903409090909 2.337890625  11.1178977272727 2.2734375  11.0326704545455 2.25  L 6.98011363636364 2.25  C 6.89488636363636 2.2734375  6.82244318181818 2.337890625  6.76278409090909 2.443359375  Z M 17.8849431818182 4.658203125  C 17.9616477272727 4.763671875  18 4.8984375  18 5.0625  L 18 6.1875  C 18 6.3515625  17.9616477272727 6.486328125  17.8849431818182 6.591796875  C 17.8082386363636 6.697265625  17.7102272727273 6.75  17.5909090909091 6.75  L 16.3636363636364 6.75  L 16.3636363636364 23.4140625  C 16.3636363636364 24.38671875  16.1633522727273 25.2275390625  15.7627840909091 25.9365234375  C 15.3622159090909 26.6455078125  14.8806818181818 27  14.3181818181818 27  L 3.68181818181818 27  C 3.11931818181818 27  2.63778409090909 26.6572265625  2.23721590909091 25.9716796875  C 1.83664772727273 25.2861328125  1.63636363636364 24.45703125  1.63636363636364 23.484375  L 1.63636363636364 6.75  L 0.409090909090909 6.75  C 0.289772727272727 6.75  0.191761363636364 6.697265625  0.115056818181818 6.591796875  C 0.0383522727272727 6.486328125  0 6.3515625  0 6.1875  L 0 5.0625  C 0 4.8984375  0.0383522727272727 4.763671875  0.115056818181818 4.658203125  C 0.191761363636364 4.552734375  0.289772727272727 4.5  0.409090909090909 4.5  L 4.359375 4.5  L 5.25426136363636 1.564453125  C 5.38210227272727 1.130859375  5.61221590909091 0.761718749999998  5.94460227272727 0.457031250000001  C 6.27698863636364 0.152343749999998  6.61363636363636 0  6.95454545454545 0  L 11.0454545454545 0  C 11.3863636363636 0  11.7230113636364 0.152343749999998  12.0553977272727 0.457031250000001  C 12.3877840909091 0.761718749999998  12.6178977272727 1.130859375  12.7457386363636 1.564453125  L 13.640625 4.5  L 17.5909090909091 4.5  C 17.7102272727273 4.5  17.8082386363636 4.552734375  17.8849431818182 4.658203125  Z " fill-rule="nonzero" fill="#000000" stroke="none" transform="matrix(1 0 0 1 2111 260 )" />
  </g>
</svg>