<?xml version="1.0" encoding="utf-8"?>
<svg version="1.1" xmlns:xlink="http://www.w3.org/1999/xlink" width="12px" height="12px" viewBox="1878 443  12 12" xmlns="http://www.w3.org/2000/svg">
  <path d="M 1884 443  C 1887.36 443  1890 445.64  1890 449  C 1890 452.36  1887.36 455  1884 455  C 1880.64 455  1878 452.36  1878 449  C 1878 445.64  1880.64 443  1884 443  Z " fill-rule="nonzero" fill="#f0f0f0" stroke="none" />
  <path d="M 1884 443.5  C 1887.08 443.5  1889.5 445.92  1889.5 449  C 1889.5 452.08  1887.08 454.5  1884 454.5  C 1880.92 454.5  1878.5 452.08  1878.5 449  C 1878.5 445.92  1880.92 443.5  1884 443.5  Z " stroke-width="1" stroke="#797979" fill="none" />
  <path d="M 1884 452  C 1882.32 452  1881 450.68  1881 449  C 1881 447.32  1882.32 446  1884 446  C 1885.68 446  1887 447.32  1887 449  C 1887 450.68  1885.68 452  1884 452  " fill-rule="nonzero" fill="#797979" stroke="none" />
</svg>