<?xml version="1.0" encoding="utf-8"?>
<svg version="1.1" xmlns:xlink="http://www.w3.org/1999/xlink" width="12px" height="12px" viewBox="2889 321  12 12" xmlns="http://www.w3.org/2000/svg">
  <path d="M 2895 321  C 2898.36 321  2901 323.64  2901 327  C 2901 330.36  2898.36 333  2895 333  C 2891.64 333  2889 330.36  2889 327  C 2889 323.64  2891.64 321  2895 321  Z " fill-rule="nonzero" fill="#ffffff" stroke="none" />
  <path d="M 2895 321.5  C 2898.08 321.5  2900.5 323.92  2900.5 327  C 2900.5 330.08  2898.08 332.5  2895 332.5  C 2891.92 332.5  2889.5 330.08  2889.5 327  C 2889.5 323.92  2891.92 321.5  2895 321.5  Z " stroke-width="1" stroke="#797979" fill="none" />
  <path d="M 2895 330  C 2893.32 330  2892 328.68  2892 327  C 2892 325.32  2893.32 324  2895 324  C 2896.68 324  2898 325.32  2898 327  C 2898 328.68  2896.68 330  2895 330  " fill-rule="nonzero" fill="#797979" stroke="none" />
</svg>