<?xml version="1.0" encoding="utf-8"?>
<svg version="1.1" xmlns:xlink="http://www.w3.org/1999/xlink" width="12px" height="12px" viewBox="2998 321  12 12" xmlns="http://www.w3.org/2000/svg">
  <path d="M 3004 321  C 3007.36 321  3010 323.64  3010 327  C 3010 330.36  3007.36 333  3004 333  C 3000.64 333  2998 330.36  2998 327  C 2998 323.64  3000.64 321  3004 321  Z " fill-rule="nonzero" fill="#ffffff" stroke="none" />
  <path d="M 3004 321.5  C 3007.08 321.5  3009.5 323.92  3009.5 327  C 3009.5 330.08  3007.08 332.5  3004 332.5  C 3000.92 332.5  2998.5 330.08  2998.5 327  C 2998.5 323.92  3000.92 321.5  3004 321.5  Z " stroke-width="1" stroke="#797979" fill="none" />
  <path d="M 3004 330  C 3002.32 330  3001 328.68  3001 327  C 3001 325.32  3002.32 324  3004 324  C 3005.68 324  3007 325.32  3007 327  C 3007 328.68  3005.68 330  3004 330  " fill-rule="nonzero" fill="#797979" stroke="none" />
</svg>