<?xml version="1.0" encoding="utf-8"?>
<svg version="1.1" xmlns:xlink="http://www.w3.org/1999/xlink" width="12px" height="12px" viewBox="2998 287  12 12" xmlns="http://www.w3.org/2000/svg">
  <path d="M 3004 287  C 3007.36 287  3010 289.64  3010 293  C 3010 296.36  3007.36 299  3004 299  C 3000.64 299  2998 296.36  2998 293  C 2998 289.64  3000.64 287  3004 287  Z " fill-rule="nonzero" fill="#f0f0f0" stroke="none" />
  <path d="M 3004 287.5  C 3007.08 287.5  3009.5 289.92  3009.5 293  C 3009.5 296.08  3007.08 298.5  3004 298.5  C 3000.92 298.5  2998.5 296.08  2998.5 293  C 2998.5 289.92  3000.92 287.5  3004 287.5  Z " stroke-width="1" stroke="#797979" fill="none" />
  <path d="M 3004 296  C 3002.32 296  3001 294.68  3001 293  C 3001 291.32  3002.32 290  3004 290  C 3005.68 290  3007 291.32  3007 293  C 3007 294.68  3005.68 296  3004 296  " fill-rule="nonzero" fill="#797979" stroke="none" />
</svg>