<?xml version="1.0" encoding="utf-8"?>
<svg version="1.1" xmlns:xlink="http://www.w3.org/1999/xlink" width="40px" height="40px" xmlns="http://www.w3.org/2000/svg">
  <g transform="matrix(1 0 0 1 -196 -235 )">
    <path d="M 216 235  C 227.2 235  236 243.8  236 255  C 236 266.2  227.2 275  216 275  C 204.8 275  196 266.2  196 255  C 196 243.8  204.8 235  216 235  Z " fill-rule="nonzero" fill="#ffffff" stroke="none" />
    <path d="M 216 235.5  C 226.92 235.5  235.5 244.08  235.5 255  C 235.5 265.92  226.92 274.5  216 274.5  C 205.08 274.5  196.5 265.92  196.5 255  C 196.5 244.08  205.08 235.5  216 235.5  Z " stroke-width="1" stroke="#797979" fill="none" />
  </g>
</svg>