<?xml version="1.0" encoding="utf-8"?>
<svg version="1.1" xmlns:xlink="http://www.w3.org/1999/xlink" width="200px" height="200px" xmlns="http://www.w3.org/2000/svg">
  <g transform="matrix(1 0 0 1 -116 -155 )">
    <path d="M 216 155  C 272 155  316 199  316 255  C 316 311  272 355  216 355  C 160 355  116 311  116 255  C 116 199  160 155  216 155  Z " fill-rule="nonzero" fill="#ffffff" stroke="none" />
    <path d="M 216 155.5  C 271.72 155.5  315.5 199.28  315.5 255  C 315.5 310.72  271.72 354.5  216 354.5  C 160.28 354.5  116.5 310.72  116.5 255  C 116.5 199.28  160.28 155.5  216 155.5  Z " stroke-width="1" stroke="#797979" fill="none" />
  </g>
</svg>