<?xml version="1.0" encoding="utf-8"?>
<svg version="1.1" xmlns:xlink="http://www.w3.org/1999/xlink" width="12px" height="12px" viewBox="1765 322  12 12" xmlns="http://www.w3.org/2000/svg">
  <path d="M 1771 322  C 1774.36 322  1777 324.64  1777 328  C 1777 331.36  1774.36 334  1771 334  C 1767.64 334  1765 331.36  1765 328  C 1765 324.64  1767.64 322  1771 322  Z " fill-rule="nonzero" fill="#ffffff" stroke="none" />
  <path d="M 1771 322.5  C 1774.08 322.5  1776.5 324.92  1776.5 328  C 1776.5 331.08  1774.08 333.5  1771 333.5  C 1767.92 333.5  1765.5 331.08  1765.5 328  C 1765.5 324.92  1767.92 322.5  1771 322.5  Z " stroke-width="1" stroke="#797979" fill="none" />
  <path d="M 1771 331  C 1769.32 331  1768 329.68  1768 328  C 1768 326.32  1769.32 325  1771 325  C 1772.68 325  1774 326.32  1774 328  C 1774 329.68  1772.68 331  1771 331  " fill-rule="nonzero" fill="#797979" stroke="none" />
</svg>