<?xml version="1.0" encoding="utf-8"?>
<svg version="1.1" xmlns:xlink="http://www.w3.org/1999/xlink" width="12px" height="12px" viewBox="1875 322  12 12" xmlns="http://www.w3.org/2000/svg">
  <path d="M 1881 322  C 1884.36 322  1887 324.64  1887 328  C 1887 331.36  1884.36 334  1881 334  C 1877.64 334  1875 331.36  1875 328  C 1875 324.64  1877.64 322  1881 322  Z " fill-rule="nonzero" fill="#f0f0f0" stroke="none" />
  <path d="M 1881 322.5  C 1884.08 322.5  1886.5 324.92  1886.5 328  C 1886.5 331.08  1884.08 333.5  1881 333.5  C 1877.92 333.5  1875.5 331.08  1875.5 328  C 1875.5 324.92  1877.92 322.5  1881 322.5  Z " stroke-width="1" stroke="#797979" fill="none" />
  <path d="M 1881 331  C 1879.32 331  1878 329.68  1878 328  C 1878 326.32  1879.32 325  1881 325  C 1882.68 325  1884 326.32  1884 328  C 1884 329.68  1882.68 331  1881 331  " fill-rule="nonzero" fill="#797979" stroke="none" />
</svg>