<?xml version="1.0" encoding="utf-8"?>
<svg version="1.1" xmlns:xlink="http://www.w3.org/1999/xlink" width="58px" height="52px" xmlns="http://www.w3.org/2000/svg">
  <g transform="matrix(1 0 0 1 -659 -237 )">
    <path d="M 659 237  L 717 237  L 717 289  L 659 289  L 659 237  " fill-rule="nonzero" fill="#cccccc" stroke="none" />
    <path d="M 663 241  L 713 241  L 713 285  L 663 285  L 663 241  " fill-rule="nonzero" fill="#ffffff" stroke="none" />
    <path d="M 693.06 252.6  C 690.876 252.6  689.16 250.884  689.16 248.7  C 689.16 246.516  690.876 244.8  693.06 244.8  C 695.244 244.8  696.96 246.516  696.96 248.7  C 696.96 250.884  695.244 252.6  693.06 252.6  " fill-rule="nonzero" fill="#cccccc" stroke="none" />
    <path d="M 665 284  L 665 261.45  L 676.75 251.2  L 693.2 261.944827586207  L 702.6 257.35  L 712 261.944827586207  L 712 284  L 665 284  " fill-rule="nonzero" fill="#169bd5" stroke="none" />
  </g>
</svg>