<?xml version="1.0" encoding="utf-8"?>
<svg version="1.1" xmlns:xlink="http://www.w3.org/1999/xlink" width="12px" height="12px" viewBox="1892 451  12 12" xmlns="http://www.w3.org/2000/svg">
  <path d="M 1898 451  C 1901.36 451  1904 453.64  1904 457  C 1904 460.36  1901.36 463  1898 463  C 1894.64 463  1892 460.36  1892 457  C 1892 453.64  1894.64 451  1898 451  Z " fill-rule="nonzero" fill="#f0f0f0" stroke="none" />
  <path d="M 1898 451.5  C 1901.08 451.5  1903.5 453.92  1903.5 457  C 1903.5 460.08  1901.08 462.5  1898 462.5  C 1894.92 462.5  1892.5 460.08  1892.5 457  C 1892.5 453.92  1894.92 451.5  1898 451.5  Z " stroke-width="1" stroke="#797979" fill="none" />
  <path d="M 1898 460  C 1896.32 460  1895 458.68  1895 457  C 1895 455.32  1896.32 454  1898 454  C 1899.68 454  1901 455.32  1901 457  C 1901 458.68  1899.68 460  1898 460  " fill-rule="nonzero" fill="#797979" stroke="none" />
</svg>