<?xml version="1.0" encoding="utf-8"?>
<svg version="1.1" xmlns:xlink="http://www.w3.org/1999/xlink" width="34px" height="30px" xmlns="http://www.w3.org/2000/svg">
  <g transform="matrix(1 0 0 1 -720 -1597 )">
    <path d="M 8.67367788461539 22.6302083333333  C 9.18449519230769 23.0642361111111  9.43990384615385 23.587962962963  9.43990384615385 24.2013888888889  C 9.43990384615385 24.8148148148148  9.18449519230769 25.3385416666667  8.67367788461539 25.7725694444444  C 8.16286057692308 26.2065972222222  7.54647435897436 26.4236111111111  6.82451923076923 26.4236111111111  C 6.1161858974359 26.4236111111111  5.50320512820513 26.2037037037037  4.98557692307692 25.7638888888889  C 4.46794871794872 25.3240740740741  4.20913461538462 24.8032407407407  4.20913461538462 24.2013888888889  C 4.20913461538462 23.587962962963  4.46454326923077 23.0642361111111  4.97536057692308 22.6302083333333  C 5.48617788461538 22.1961805555556  6.1025641025641 21.9791666666667  6.82451923076923 21.9791666666667  C 7.54647435897436 21.9791666666667  8.16286057692308 22.1961805555556  8.67367788461539 22.6302083333333  Z M 18.8491586538462 26.2065972222222  C 19.3599759615385 26.640625  19.6153846153846 27.1643518518519  19.6153846153846 27.7777777777778  C 19.6153846153846 28.3912037037037  19.3599759615385 28.9149305555556  18.8491586538462 29.3489583333333  C 18.3383413461538 29.7829861111111  17.7219551282051 30  17 30  C 16.2780448717949 30  15.6616586538462 29.7829861111111  15.1508413461538 29.3489583333333  C 14.6400240384615 28.9149305555556  14.3846153846154 28.3912037037037  14.3846153846154 27.7777777777778  C 14.3846153846154 27.1643518518519  14.6400240384615 26.640625  15.1508413461538 26.2065972222222  C 15.6616586538462 25.7725694444444  16.2780448717949 25.5555555555556  17 25.5555555555556  C 17.7219551282051 25.5555555555556  18.3383413461538 25.7725694444444  18.8491586538462 26.2065972222222  Z M 4.46454326923077 13.984375  C 4.97536057692308 14.4184027777778  5.23076923076923 14.9421296296296  5.23076923076923 15.5555555555556  C 5.23076923076923 16.1689814814815  4.97536057692308 16.6927083333333  4.46454326923077 17.1267361111111  C 3.95372596153846 17.5607638888889  3.33733974358974 17.7777777777778  2.61538461538462 17.7777777777778  C 1.89342948717949 17.7777777777778  1.27704326923077 17.5607638888889  0.766225961538462 17.1267361111111  C 0.255408653846154 16.6927083333333  0 16.1689814814815  0 15.5555555555556  C 0 14.9421296296296  0.255408653846154 14.4184027777778  0.766225961538462 13.984375  C 1.27704326923077 13.5503472222222  1.89342948717949 13.3333333333333  2.61538461538462 13.3333333333333  C 3.33733974358974 13.3333333333333  3.95372596153846 13.5503472222222  4.46454326923077 13.984375  Z M 29.0246394230769 22.6302083333333  C 29.5354567307692 23.0642361111111  29.7908653846154 23.587962962963  29.7908653846154 24.2013888888889  C 29.7908653846154 24.8032407407407  29.5320512820513 25.3240740740741  29.0144230769231 25.7638888888889  C 28.4967948717949 26.2037037037037  27.8838141025641 26.4236111111111  27.1754807692308 26.4236111111111  C 26.4535256410256 26.4236111111111  25.8371394230769 26.2065972222222  25.3263221153846 25.7725694444444  C 24.8155048076923 25.3385416666667  24.5600961538462 24.8148148148148  24.5600961538462 24.2013888888889  C 24.5600961538462 23.587962962963  24.8155048076923 23.0642361111111  25.3263221153846 22.6302083333333  C 25.8371394230769 22.1961805555556  26.4535256410256 21.9791666666667  27.1754807692308 21.9791666666667  C 27.8974358974359 21.9791666666667  28.5138221153846 22.1961805555556  29.0246394230769 22.6302083333333  Z M 9.13341346153846 4.94791666666667  C 9.77363782051282 5.49189814814815  10.09375 6.14583333333333  10.09375 6.90972222222222  C 10.09375 7.67361111111111  9.77363782051282 8.32754629629629  9.13341346153846 8.87152777777778  C 8.4931891025641 9.41550925925926  7.72355769230769 9.6875  6.82451923076923 9.6875  C 5.92548076923077 9.6875  5.15584935897436 9.41550925925926  4.515625 8.87152777777778  C 3.87540064102564 8.32754629629629  3.55528846153846 7.67361111111111  3.55528846153846 6.90972222222222  C 3.55528846153846 6.14583333333333  3.87540064102564 5.49189814814815  4.515625 4.94791666666667  C 5.15584935897436 4.40393518518518  5.92548076923077 4.13194444444445  6.82451923076923 4.13194444444445  C 7.72355769230769 4.13194444444445  8.4931891025641 4.40393518518518  9.13341346153846 4.94791666666667  Z M 33.2337740384615 13.984375  C 33.7445913461539 14.4184027777778  34 14.9421296296296  34 15.5555555555556  C 34 16.1689814814815  33.7445913461539 16.6927083333333  33.2337740384615 17.1267361111111  C 32.7229567307692 17.5607638888889  32.1065705128205 17.7777777777778  31.3846153846154 17.7777777777778  C 30.6626602564103 17.7777777777778  30.0462740384615 17.5607638888889  29.5354567307692 17.1267361111111  C 29.0246394230769 16.6927083333333  28.7692307692308 16.1689814814815  28.7692307692308 15.5555555555556  C 28.7692307692308 14.9421296296296  29.0246394230769 14.4184027777778  29.5354567307692 13.984375  C 30.0462740384615 13.5503472222222  30.6626602564103 13.3333333333333  31.3846153846154 13.3333333333333  C 32.1065705128205 13.3333333333333  32.7229567307692 13.5503472222222  33.2337740384615 13.984375  Z M 19.7788461538462 0.972222222222223  C 20.5416666666667 1.62037037037037  20.9230769230769 2.4074074074074  20.9230769230769 3.33333333333333  C 20.9230769230769 4.25925925925926  20.5416666666667 5.04629629629629  19.7788461538462 5.69444444444444  C 19.0160256410256 6.34259259259259  18.0897435897436 6.66666666666667  17 6.66666666666667  C 15.9102564102564 6.66666666666667  14.9839743589744 6.34259259259259  14.2211538461538 5.69444444444444  C 13.4583333333333 5.04629629629629  13.0769230769231 4.25925925925926  13.0769230769231 3.33333333333333  C 13.0769230769231 2.4074074074074  13.4583333333333 1.62037037037037  14.2211538461538 0.972222222222223  C 14.9839743589744 0.324074074074076  15.9102564102564 0  17 0  C 18.0897435897436 0  19.0160256410256 0.324074074074076  19.7788461538462 0.972222222222223  Z M 30.4038461538462 4.16666666666667  C 31.3028846153846 4.93055555555556  31.7524038461538 5.84490740740741  31.7524038461538 6.90972222222222  C 31.7524038461538 7.98611111111111  31.3028846153846 8.90335648148148  30.4038461538462 9.66145833333334  C 29.5048076923077 10.4195601851852  28.4286858974359 10.7986111111111  27.1754807692308 10.7986111111111  C 25.9086538461538 10.7986111111111  24.8291266025641 10.4195601851852  23.9368990384615 9.66145833333334  C 23.044671474359 8.90335648148148  22.5985576923077 7.98611111111111  22.5985576923077 6.90972222222222  C 22.5985576923077 5.84490740740741  23.044671474359 4.93055555555556  23.9368990384615 4.16666666666667  C 24.8291266025641 3.40277777777778  25.9086538461538 3.02083333333333  27.1754807692308 3.02083333333333  C 28.4286858974359 3.02083333333333  29.5048076923077 3.40277777777778  30.4038461538462 4.16666666666667  Z " fill-rule="nonzero" fill="#000000" stroke="none" transform="matrix(1 0 0 1 720 1597 )" />
  </g>
</svg>