<?xml version="1.0" encoding="utf-8"?>
<svg version="1.1" xmlns:xlink="http://www.w3.org/1999/xlink" width="12px" height="12px" viewBox="1781 132  12 12" xmlns="http://www.w3.org/2000/svg">
  <path d="M 1787 132  C 1790.36 132  1793 134.64  1793 138  C 1793 141.36  1790.36 144  1787 144  C 1783.64 144  1781 141.36  1781 138  C 1781 134.64  1783.64 132  1787 132  Z " fill-rule="nonzero" fill="#f0f0f0" stroke="none" />
  <path d="M 1787 132.5  C 1790.08 132.5  1792.5 134.92  1792.5 138  C 1792.5 141.08  1790.08 143.5  1787 143.5  C 1783.92 143.5  1781.5 141.08  1781.5 138  C 1781.5 134.92  1783.92 132.5  1787 132.5  Z " stroke-width="1" stroke="#797979" fill="none" />
  <path d="M 1787 141  C 1785.32 141  1784 139.68  1784 138  C 1784 136.32  1785.32 135  1787 135  C 1788.68 135  1790 136.32  1790 138  C 1790 139.68  1788.68 141  1787 141  " fill-rule="nonzero" fill="#797979" stroke="none" />
</svg>