<?xml version="1.0" encoding="utf-8"?>
<svg version="1.1" xmlns:xlink="http://www.w3.org/1999/xlink" width="12px" height="12px" viewBox="1891 132  12 12" xmlns="http://www.w3.org/2000/svg">
  <path d="M 1897 132  C 1900.36 132  1903 134.64  1903 138  C 1903 141.36  1900.36 144  1897 144  C 1893.64 144  1891 141.36  1891 138  C 1891 134.64  1893.64 132  1897 132  Z " fill-rule="nonzero" fill="#f0f0f0" stroke="none" />
  <path d="M 1897 132.5  C 1900.08 132.5  1902.5 134.92  1902.5 138  C 1902.5 141.08  1900.08 143.5  1897 143.5  C 1893.92 143.5  1891.5 141.08  1891.5 138  C 1891.5 134.92  1893.92 132.5  1897 132.5  Z " stroke-width="1" stroke="#797979" fill="none" />
  <path d="M 1897 141  C 1895.32 141  1894 139.68  1894 138  C 1894 136.32  1895.32 135  1897 135  C 1898.68 135  1900 136.32  1900 138  C 1900 139.68  1898.68 141  1897 141  " fill-rule="nonzero" fill="#797979" stroke="none" />
</svg>